<?xml version="1.0" encoding="UTF-8"?>
<!DOCTYPE svg PUBLIC "-//W3C//DTD SVG 1.1//EN" "http://www.w3.org/Graphics/SVG/1.1/DTD/svg11.dtd">
<svg width="912" height="220pt" viewBox="0 0 684 220" version="1.1" xmlns="http://www.w3.org/2000/svg">
  <g/>
  <g fill="#02c3ff">
    <path opacity="1" d="M413.88 5.63C420.58 5.62 427.29 5.62 434 5.63 434 58.4 434 111.17 434 163.95 427.29 163.93 420.58 163.94 413.88 163.96 413.88 111.18 413.88 58.4 413.88 5.63ZM36.06 65.1C48.04 55.98 64.37 53.44 78.8 57.24 88.95 59.89 97.79 66.9 102.6 76.23 103.09 70.31 103.62 64.4 104.17 58.48 110.19 58.56 116.22 58.5 122.24 58.53 122.24 92.36 122.24 126.19 122.24 160.03 122.21 173.18 118.59 186.77 109.9 196.9 103.52 204.39 94.61 209.52 85.09 211.81 78.86 213.52 72.35 213.22 65.96 213.21 52.15 213.24 38.16 207.49 29.05 196.97 22.68 189.63 19.04 180.24 17.63 170.7 24.4 170.7 31.16 170.68 37.93 170.71 39.24 177.14 41.97 183.53 47.11 187.83 55.25 194.84 66.86 196.22 77.14 194.52 86.53 192.99 95.16 186.88 99.04 178.09 104.32 166.65 101.64 153.74 102.31 141.6 97.84 149.02 90.87 154.84 82.72 157.81 67.54 163.45 49.39 161.56 36.28 151.81 25.31 143.66 18.72 130.52 17.13 117.1 16.74 111.72 16.81 106.3 17.03 100.92 18.33 87.13 24.96 73.6 36.06 65.1M65.23 73.44C54.4 74.19 44.41 81.27 40.16 91.26 34.22 104.84 35.71 122.17 45.64 133.52 57.98 147.59 83.2 146.17 94.24 131.18 100.25 123.22 102.19 112.79 101.13 103.01 100.26 94.65 96.69 86.32 90.25 80.76 83.5 74.8 74.06 72.59 65.23 73.44ZM173.95 59.92C182.03 55.69 191.6 55.51 200.35 57.46 200.26 63.7 200.32 69.94 200.3 76.18 191.32 76.09 181.62 75.72 173.72 80.74 165.01 85.92 160.84 96.3 160.67 106.1 160.57 125.37 160.67 144.65 160.63 163.92 153.9 163.94 147.18 163.96 140.46 163.92 140.41 128.79 140.46 93.65 140.43 58.51 146.78 58.54 153.12 58.51 159.47 58.52 159.9 63.72 160.33 68.91 160.79 74.1 163.58 68.16 168 62.88 173.95 59.92ZM215.32 69.47C223.03 60.77 234.71 56.73 246.04 55.82 257.67 54.92 270.11 56.34 279.96 63.03 287.57 68.15 292.57 76.51 294.45 85.4 295.68 90.83 295.78 96.43 295.7 101.98 295.68 122.55 295.71 143.12 295.69 163.69 289.96 163.7 284.23 163.7 278.51 163.69 277.86 158.13 277.15 152.57 276.54 147 271.38 157.48 260.33 163.77 249.1 165.62 239.1 167.22 228.33 166.63 219.22 161.87 212.46 158.41 207.28 152.07 205.28 144.75 202.51 134.67 203.72 122.87 210.7 114.71 217.89 106.23 229.13 102.62 239.85 101.43 251.89 100.32 263.97 99.56 276.03 98.58 276.18 91.61 275.46 83.87 270.42 78.55 265.01 72.77 256.52 71.57 248.98 71.94 241.91 72.23 234.3 74.03 229.3 79.39 226.09 82.77 224.9 87.46 224.62 92 218.74 91.99 212.86 92.03 206.99 91.96 207.15 83.81 209.77 75.57 215.32 69.47M249.13 115.18C242.58 115.93 235.75 117.28 230.35 121.3 222.14 127.26 222.11 141.6 230.77 147.17 236.7 150.92 244.12 151.24 250.9 150.4 259.23 149.37 267.33 144.8 271.52 137.38 275.98 130.13 276.44 121.38 276.27 113.1 267.22 113.77 258.17 114.45 249.13 115.18ZM494.38 56.56C506.76 55.2 519.62 58.16 529.98 65.13 543.11 73.72 552.03 88.35 553.69 103.95 555.32 117.68 551.4 131.98 542.93 142.92 534.73 153.72 522.26 161.18 508.85 163.23 494.81 165.53 479.9 161.96 468.52 153.41 456.86 144.88 448.97 131.44 447.18 117.11 445.48 104.23 448.54 90.75 455.84 79.98 464.45 67.04 478.91 58.19 494.38 56.56M493.19 75.37C478.23 78.2 466.24 91.73 465.21 106.92 463.56 122.28 473.25 137.99 487.83 143.21 502.71 149.14 521.12 143.32 529.77 129.81 539.27 116 537.07 95.64 524.7 84.29 516.5 76.38 504.31 73.02 493.19 75.37ZM575.36 70.41C588.74 55.77 611.61 51.67 629.68 59.24 637.48 62.57 643.81 68.75 647.83 76.17 648.28 70.3 648.91 64.46 649.3 58.59 655.24 58.45 661.18 58.54 667.12 58.52 667.12 88.7 667.12 118.87 667.12 149.04 666.96 158.95 667.97 169.12 664.81 178.7 660.86 192.91 650.07 205.15 636.04 210.04 626.83 213.72 616.76 213.43 607.03 213.05 593.39 211.94 579.94 205.23 571.91 193.97 566.93 187.16 564.12 178.99 562.82 170.71 569.52 170.69 576.23 170.69 582.94 170.7 584.2 177.17 586.98 183.57 592.14 187.87 600.01 194.61 611.13 196.1 621.09 194.7 630.62 193.39 639.64 187.54 643.74 178.69 649.39 167.14 646.64 153.94 647.31 141.6 642.57 149.47 635 155.47 626.28 158.34 610.72 163.51 592.31 161.06 579.55 150.45 569.28 142 563.35 129.12 561.95 116.05 560.05 99.92 564.12 82.5 575.36 70.41M610.28 73.44C601.79 74.21 593.61 78.57 588.66 85.57 581.63 95.42 580.38 108.57 583.53 120.05 585.98 129.12 592.29 137.37 601.16 140.91 613.46 145.72 629.04 143.17 637.95 133.01 645.32 124.7 647.65 112.9 646.23 102.1 645.16 93.54 641.17 85.08 634.24 79.75 627.53 74.48 618.64 72.62 610.28 73.44ZM297.88 58.53C304.99 58.51 312.11 58.53 319.22 58.52 329.39 86.79 339.53 115.06 349.77 143.31 360.14 115.06 370.41 86.77 380.78 58.52 387.73 58.52 394.69 58.54 401.65 58.51 385.48 100.42 369.42 142.37 353.3 184.3 349.71 194.22 344.42 204.59 334.61 209.59 324.11 214.78 311.78 213.42 300.7 211.1 300.69 205.51 300.72 199.93 300.66 194.34 309.4 193.76 318.78 195.8 326.97 191.91 335.18 187.31 337.02 177.32 340.12 169.24 325.96 132.36 312.01 95.41 297.88 58.53Z"/>
    <path opacity="1" d="M 504.02 85.11 C 505.45 85.66 505.98 87.16 506.65 88.41 C 509.57 94.55 512.59 100.64 515.55 106.77 C 518.68 106.86 521.83 106.63 524.96 107.00 C 528.06 107.52 528.56 112.43 525.45 113.33 C 520.80 113.90 516.09 113.42 511.42 113.55 C 509.65 109.95 507.92 106.34 506.13 102.75 C 503.70 111.21 501.54 119.75 499.22 128.24 C 498.47 130.66 498.30 133.49 496.24 135.25 C 492.41 128.05 489.10 120.60 485.39 113.34 C 481.93 113.21 478.42 113.62 475.01 113.00 C 472.20 111.86 472.38 107.33 475.37 106.57 C 480.01 106.06 484.70 106.49 489.36 106.38 C 491.14 110.03 492.91 113.67 494.69 117.31 C 497.85 106.59 500.22 95.59 504.02 85.11 Z"/>
  </g>
</svg>